<svg width="228" height="87" viewBox="0 0 228 87" fill="none" xmlns="http://www.w3.org/2000/svg">
<path d="M32 29.5C32 27.567 33.567 26 35.5 26V26C37.433 26 39 27.567 39 29.5V43.5C39 45.433 37.433 47 35.5 47V47C33.567 47 32 45.433 32 43.5V29.5Z" fill="#6046CD"/>
<path d="M9.59207 33H43.4751C44.5026 33 45.3629 33.7786 45.4651 34.801L48.4651 64.801C48.5829 65.9784 47.6583 67 46.4751 67H5.69207C4.48513 67 3.55317 65.939 3.70876 64.7422L7.60876 34.7422C7.73831 33.7457 8.58718 33 9.59207 33Z" stroke="black" stroke-width="6"/>
<path d="M35.4769 30.0615C35.4769 23.4001 31.6196 18 26.8615 18C22.1033 18 18.2461 23.4001 18.2461 30.0615" stroke="#6046CD" stroke-width="7"/>
<path d="M14.5903 29.7936C14.5408 27.7132 16.2137 26 18.2946 26V26C20.3411 26 22 27.6589 22 29.7054V43.4583C22 45.4143 20.4143 47 18.4583 47V47C16.5352 47 14.9635 45.4653 14.9177 43.5426L14.5903 29.7936Z" fill="#6046CD"/>
<circle cx="222.5" cy="59.5" r="5.5" fill="#6046CD"/>
<path d="M102.424 34.856C102.851 33.832 103.555 33.32 104.536 33.32C105.176 33.32 105.752 33.5333 106.264 33.96C106.776 34.3867 107.032 34.92 107.032 35.56C107.032 35.8587 106.968 36.1787 106.84 36.52L96.216 63.4C95.96 63.9547 95.576 64.4027 95.064 64.744C94.5947 65.0427 94.0613 65.192 93.464 65.192C92.9093 65.192 92.376 65.0427 91.864 64.744C91.3947 64.4027 91.032 63.9547 90.776 63.4L81.944 40.936L73.176 63.4C72.9627 63.9547 72.6 64.4027 72.088 64.744C71.576 65.0427 71.0213 65.192 70.424 65.192C69.8693 65.192 69.336 65.0427 68.824 64.744C68.312 64.4027 67.928 63.9547 67.672 63.4L57.048 36.584C56.92 36.2427 56.856 35.944 56.856 35.688C56.856 35.0053 57.1333 34.4293 57.688 33.96C58.2853 33.4907 58.9253 33.256 59.608 33.256C60.632 33.256 61.3573 33.768 61.784 34.792L70.552 58.408L79.576 34.984C79.832 34.4293 80.1733 34.0027 80.6 33.704C81.0693 33.4053 81.56 33.256 82.072 33.256C82.6267 33.256 83.1173 33.4053 83.544 33.704C84.0133 34.0027 84.3547 34.4293 84.568 34.984L93.592 58.344L102.424 34.856Z" fill="black"/>
<path d="M199.536 33.064C207.344 33.064 211.248 37.16 211.248 45.352V62.76C211.248 63.528 211.013 64.1467 210.544 64.616C210.117 65.0853 209.52 65.32 208.752 65.32C207.984 65.32 207.365 65.0853 206.896 64.616C206.427 64.1467 206.192 63.528 206.192 62.76V59.688C205.381 61.5227 204.144 62.952 202.48 63.976C200.816 64.9573 198.896 65.448 196.72 65.448C194.715 65.448 192.859 65.0427 191.152 64.232C189.488 63.4213 188.165 62.2907 187.184 60.84C186.203 59.3893 185.712 57.7893 185.712 56.04C185.712 53.6933 186.309 51.88 187.504 50.6C188.699 49.2773 190.661 48.3387 193.392 47.784C196.123 47.1867 199.92 46.888 204.784 46.888H206.192V44.776C206.192 42.216 205.659 40.3387 204.592 39.144C203.568 37.9493 201.883 37.352 199.536 37.352C196.635 37.352 193.691 38.1413 190.704 39.72C189.552 40.4453 188.741 40.808 188.272 40.808C187.76 40.808 187.333 40.616 186.992 40.232C186.651 39.848 186.48 39.3573 186.48 38.76C186.48 38.1627 186.651 37.6507 186.992 37.224C187.376 36.7547 187.973 36.2853 188.784 35.816C190.277 34.9627 191.963 34.3013 193.84 33.832C195.76 33.32 197.659 33.064 199.536 33.064ZM197.424 61.352C199.984 61.352 202.075 60.4987 203.696 58.792C205.36 57.0427 206.192 54.8027 206.192 52.072V50.216H205.04C201.285 50.216 198.427 50.3867 196.464 50.728C194.501 51.0267 193.093 51.56 192.24 52.328C191.429 53.0533 191.024 54.1413 191.024 55.592C191.024 57.256 191.621 58.6427 192.816 59.752C194.053 60.8187 195.589 61.352 197.424 61.352Z" fill="black"/>
<path d="M159.712 60.904C160.437 60.904 160.992 61.096 161.376 61.48C161.76 61.8213 161.952 62.312 161.952 62.952C161.952 63.592 161.76 64.104 161.376 64.488C160.992 64.8293 160.437 65 159.712 65H137.312C136.587 65 135.989 64.7867 135.52 64.36C135.051 63.8907 134.816 63.336 134.816 62.696C134.816 62.0133 135.072 61.352 135.584 60.712L154.528 37.928H136.992C136.267 37.928 135.691 37.7573 135.264 37.416C134.88 37.032 134.688 36.5413 134.688 35.944C134.688 35.304 134.88 34.792 135.264 34.408C135.691 34.024 136.267 33.832 136.992 33.832H158.688C159.456 33.832 160.075 34.0667 160.544 34.536C161.013 34.9627 161.248 35.496 161.248 36.136C161.248 36.8187 160.992 37.48 160.48 38.12L141.472 60.904H159.712Z" fill="#6046CD"/>
<path d="M121.536 33.064C129.344 33.064 133.248 37.16 133.248 45.352V62.76C133.248 63.528 133.013 64.1467 132.544 64.616C132.117 65.0853 131.52 65.32 130.752 65.32C129.984 65.32 129.365 65.0853 128.896 64.616C128.427 64.1467 128.192 63.528 128.192 62.76V59.688C127.381 61.5227 126.144 62.952 124.48 63.976C122.816 64.9573 120.896 65.448 118.72 65.448C116.715 65.448 114.859 65.0427 113.152 64.232C111.488 63.4213 110.165 62.2907 109.184 60.84C108.203 59.3893 107.712 57.7893 107.712 56.04C107.712 53.6933 108.309 51.88 109.504 50.6C110.699 49.2773 112.661 48.3387 115.392 47.784C118.123 47.1867 121.92 46.888 126.784 46.888H128.192V44.776C128.192 42.216 127.659 40.3387 126.592 39.144C125.568 37.9493 123.883 37.352 121.536 37.352C118.635 37.352 115.691 38.1413 112.704 39.72C111.552 40.4453 110.741 40.808 110.272 40.808C109.76 40.808 109.333 40.616 108.992 40.232C108.651 39.848 108.48 39.3573 108.48 38.76C108.48 38.1627 108.651 37.6507 108.992 37.224C109.376 36.7547 109.973 36.2853 110.784 35.816C112.277 34.9627 113.963 34.3013 115.84 33.832C117.76 33.32 119.659 33.064 121.536 33.064ZM119.424 61.352C121.984 61.352 124.075 60.4987 125.696 58.792C127.36 57.0427 128.192 54.8027 128.192 52.072V50.216H127.04C123.285 50.216 120.427 50.3867 118.464 50.728C116.501 51.0267 115.093 51.56 114.24 52.328C113.429 53.0533 113.024 54.1413 113.024 55.592C113.024 57.256 113.621 58.6427 114.816 59.752C116.053 60.8187 117.589 61.352 119.424 61.352Z" fill="black"/>
<path d="M182.712 60.904C183.437 60.904 183.992 61.096 184.376 61.48C184.76 61.8213 184.952 62.312 184.952 62.952C184.952 63.592 184.76 64.104 184.376 64.488C183.992 64.8293 183.437 65 182.712 65H160.312C159.587 65 158.989 64.7867 158.52 64.36C158.051 63.8907 157.816 63.336 157.816 62.696C157.816 62.0133 158.072 61.352 158.584 60.712L177.528 37.928H159.992C159.267 37.928 158.691 37.7573 158.264 37.416C157.88 37.032 157.688 36.5413 157.688 35.944C157.688 35.304 157.88 34.792 158.264 34.408C158.691 34.024 159.267 33.832 159.992 33.832H181.688C182.456 33.832 183.075 34.0667 183.544 34.536C184.013 34.9627 184.248 35.496 184.248 36.136C184.248 36.8187 183.992 37.48 183.48 38.12L164.472 60.904H182.712Z" fill="#6046CD"/>
</svg>
